<svg xmlns:xlink="http://www.w3.org/1999/xlink" style="margin-bottom: 2rem;" width="113" height="31" viewBox="0 0 113 31" fill="none" xmlns="http://www.w3.org/2000/svg">
					<path fill-rule="evenodd" clip-rule="evenodd" d="M111.92 5.68897C111.522 5.24257 110.99 5.01697 110.27 5.01697C109.551 5.01697 109.001 5.25457 108.618 5.74657C108.236 6.22177 108.037 6.93697 108.037 7.87297V14.6578C107.152 13.705 106.233 13.021 105.3 12.5602C104.718 12.2794 104.032 12.0706 103.266 11.965C102.823 11.905 102.364 11.8738 101.861 11.8738C99.5223 11.8738 97.6275 12.6778 96.174 14.2858C94.7373 15.8938 94.0177 18.1258 94.0177 20.9938C94.0177 22.3498 94.2024 23.6146 94.567 24.7738C94.9363 25.933 95.452 26.9458 96.1572 27.8074C96.8599 28.6714 97.7019 29.3242 98.6637 29.8018C99.6255 30.2626 100.666 30.5002 101.796 30.5002C102.314 30.5002 102.804 30.457 103.262 30.3682C103.569 30.3226 103.856 30.2482 104.149 30.157C104.866 29.9194 105.54 29.5786 106.152 29.1466C106.778 28.7002 107.406 28.1194 108.032 27.421V27.8674C108.032 28.7146 108.246 29.3554 108.658 29.8162C109.088 30.2626 109.622 30.5002 110.263 30.5002C110.92 30.5002 111.455 30.277 111.867 29.8474C112.278 29.401 112.494 28.7458 112.494 27.8698V7.63777C112.501 6.78817 112.302 6.13297 111.92 5.68897ZM107.166 24.4042C106.754 25.2658 106.202 25.9066 105.531 26.3242C104.842 26.7418 104.091 26.9482 103.266 26.9482H103.252C102.424 26.9482 101.676 26.725 100.988 26.2954C100.299 25.849 99.7501 25.1938 99.3544 24.3322C98.9586 23.4538 98.7595 22.3978 98.7595 21.1474C98.7595 19.9714 98.9418 18.9322 99.3256 18.0538C99.6925 17.161 100.227 16.477 100.901 16.0018C101.59 15.5098 102.355 15.2866 103.223 15.2866H103.269C104.079 15.2866 104.828 15.5242 105.516 15.985C106.205 16.4458 106.754 17.1178 107.166 17.9938C107.579 18.8722 107.778 19.9282 107.778 21.1474C107.778 22.4554 107.579 23.5426 107.166 24.4042ZM92.322 24.5986C92.0317 24.3466 91.6336 24.2122 91.1443 24.2122C90.7006 24.2122 90.3648 24.3178 90.1201 24.5098C89.5228 25.045 89.0503 25.477 88.681 25.789C88.3164 26.0866 87.9015 26.3842 87.4602 26.665C87.0333 26.9338 86.5728 27.1426 86.1169 27.2626C85.642 27.3946 85.1383 27.4546 84.5724 27.4546C84.45 27.4546 84.3277 27.4546 84.2197 27.4402C83.5146 27.397 82.8598 27.2026 82.2649 26.845C81.5598 26.4442 81.0105 25.8514 80.5812 25.0762C80.1687 24.2722 79.9552 23.3506 79.9408 22.309H89.1583C90.396 22.309 91.3578 22.129 92.0317 21.8026C92.7201 21.445 93.0559 20.701 93.0559 19.5562C93.0559 18.3058 92.7201 17.0866 92.0629 15.8818C91.4058 14.689 90.4272 13.7074 89.0983 12.9514C87.7816 12.193 86.2081 11.821 84.3589 11.821H84.2221C82.8622 11.8354 81.6078 12.061 80.4925 12.4762C79.3315 12.9226 78.3505 13.5634 77.5399 14.3794C76.7628 15.2122 76.1511 16.2082 75.7386 17.3698C75.3261 18.5314 75.1102 19.7962 75.1102 21.1474C75.1102 24.0346 75.952 26.2954 77.6334 27.9754C79.2213 29.569 81.4231 30.4018 84.2197 30.4906C84.3733 30.505 84.5388 30.505 84.709 30.505C86.0235 30.505 87.1987 30.3418 88.2229 30.001C89.2471 29.6578 90.0889 29.2402 90.7629 28.7362C91.432 28.2154 91.9381 27.6802 92.274 27.1306C92.6098 26.581 92.7801 26.089 92.7801 25.6858C92.7801 25.2226 92.629 24.8506 92.322 24.5986ZM81.3175 16.1914C82.0683 15.4018 83.0301 15.0154 84.2077 15.0154H84.2245C85.4454 15.0154 86.4408 15.4018 87.1891 16.1746C87.9399 16.9498 88.3812 18.1258 88.4892 19.7002H79.9432C80.0943 18.1546 80.5548 16.9786 81.3175 16.1914ZM72.2512 24.2098C71.793 24.2098 71.4573 24.3154 71.2126 24.5074C70.6321 25.0426 70.1428 25.4746 69.7759 25.7866C69.4089 26.0842 69.0108 26.3818 68.5671 26.6626C68.1258 26.9314 67.6795 27.1402 67.207 27.2602C66.7489 27.3922 66.2284 27.4522 65.6625 27.4522C65.5425 27.4522 65.4202 27.4522 65.3122 27.4378C64.6071 27.3946 63.9523 27.2002 63.355 26.8426C62.6691 26.4418 62.103 25.849 61.6905 25.0738C61.2612 24.2698 61.0477 23.3482 61.0309 22.3066H70.2628C71.4861 22.3066 72.4479 22.1266 73.1362 21.8002C73.8078 21.4426 74.146 20.6986 74.146 19.5538C74.146 18.3034 73.8246 17.0842 73.1674 15.8794C72.5103 14.6866 71.5173 13.705 70.2028 12.949C68.886 12.1906 67.2982 11.8186 65.4658 11.8186H65.3122C63.9523 11.833 62.7147 12.0586 61.5826 12.4738C60.4192 12.9202 59.4406 13.561 58.6468 14.377C57.8529 15.2098 57.2412 16.2058 56.8287 17.3674C56.4138 18.529 56.2003 19.7938 56.2003 21.145C56.2003 24.0322 57.0565 26.293 58.7379 27.973C60.3282 29.5666 62.5132 30.3994 65.3098 30.4882C65.4778 30.5026 65.6289 30.5026 65.7991 30.5026C67.128 30.5026 68.2912 30.3394 69.313 29.9986C70.3372 29.6554 71.179 29.2378 71.8506 28.7338C72.5389 28.213 73.0282 27.6778 73.3641 27.1282C73.6999 26.5786 73.8702 26.0866 73.8702 25.6834C73.8702 25.2226 73.7167 24.8506 73.4265 24.5986C73.1242 24.3442 72.7237 24.2098 72.2512 24.2098ZM62.4076 16.1914C63.156 15.4018 64.1202 15.0154 65.2978 15.0154H65.3146C66.5355 15.0154 67.5309 15.4018 68.2792 16.1746C69.042 16.9498 69.4713 18.1258 69.5937 19.7002H61.0333C61.2012 18.1546 61.6617 16.9786 62.4076 16.1914ZM9.82016 27.4546V16.5034C10.1392 16.5322 10.4462 16.5466 10.7676 16.5466C12.2954 16.5466 13.7345 16.1458 14.9554 15.4306V27.4522C14.9554 28.4794 14.7107 29.2378 14.2358 29.7442C13.7633 30.2482 13.1349 30.5002 12.3722 30.5002C11.6215 30.5002 11.0266 30.2482 10.5373 29.7274C10.0648 29.2234 9.82016 28.465 9.82016 27.4546ZM54.2215 5.68897C53.8234 5.24257 53.2741 5.01697 52.5858 5.01697C51.8662 5.01697 51.3169 5.25457 50.9332 5.74657C50.5374 6.22177 50.3527 6.93697 50.3527 7.87297V14.6578C49.4677 13.705 48.5514 13.021 47.616 12.5602C47.0212 12.2794 46.3471 12.0706 45.5845 11.965C45.1431 11.905 44.6826 11.8738 44.1789 11.8738C41.8404 11.8738 39.9288 12.6778 38.4921 14.2858C37.0554 15.8938 36.3358 18.1258 36.3358 20.9938C36.3358 22.3498 36.5205 23.6146 36.8706 24.7738C37.2376 25.933 37.7725 26.9458 38.4777 27.8074C39.1804 28.6714 40.02 29.3242 40.9842 29.8018C41.9484 30.2626 42.9844 30.5002 44.1166 30.5002C44.6203 30.5002 45.1096 30.457 45.5821 30.3682C45.889 30.3226 46.1793 30.2482 46.4695 30.157C47.1867 29.9194 47.8606 29.5786 48.4723 29.1466C49.0983 28.7002 49.7124 28.1194 50.3503 27.421V27.8674C50.3503 28.7146 50.5662 29.3554 50.9787 29.8162C51.3913 30.2626 51.9429 30.5002 52.5834 30.5002C53.2093 30.5002 53.761 30.277 54.1735 29.8474C54.586 29.401 54.7828 28.7458 54.7828 27.8698V7.63777C54.7852 6.78817 54.6028 6.13297 54.2215 5.68897ZM49.482 24.4042C49.0695 25.2658 48.5178 25.9066 47.8318 26.3242C47.1579 26.7418 46.3927 26.9482 45.5845 26.9482H45.5701C44.745 26.9482 43.9942 26.725 43.3083 26.2954C42.6055 25.849 42.0706 25.1938 41.6725 24.3322C41.2767 23.4538 41.0776 22.3978 41.0776 21.1474C41.0776 19.9714 41.2623 18.9322 41.6269 18.0538C42.0082 17.161 42.5287 16.477 43.2171 16.0018C43.8888 15.5098 44.6682 15.2866 45.5245 15.2866H45.5845C46.3951 15.2866 47.1435 15.5242 47.8174 15.985C48.5202 16.4458 49.0695 17.1178 49.482 17.9938C49.8778 18.8722 50.0937 19.9282 50.0937 21.1474C50.0937 22.4554 49.8778 23.5426 49.482 24.4042ZM22.4916 14.377V14.9434C23.331 13.8706 24.2329 13.0978 25.2115 12.5914C26.2044 12.1018 27.3366 11.8474 28.6198 11.8474C29.8597 11.8474 30.9751 12.1162 31.9513 12.637C32.9299 13.1554 33.6471 13.9018 34.1364 14.869C34.4577 15.433 34.6569 16.045 34.7479 16.7002C34.8391 17.3386 34.8847 18.1714 34.8847 19.1842V27.7114C34.8847 28.633 34.6545 29.3314 34.2274 29.7922C33.8005 30.2674 33.2344 30.505 32.5461 30.505C31.8433 30.505 31.2774 30.2674 30.8335 29.7778C30.3898 29.3002 30.1764 28.6042 30.1764 27.7114V20.0722C30.1764 18.5554 29.9605 17.3962 29.5336 16.5922C29.1066 15.7906 28.2336 15.3874 26.9527 15.3874C26.1109 15.3874 25.3482 15.6394 24.6598 16.117C23.9715 16.609 23.4534 17.2762 23.1319 18.1402C22.9017 18.8242 22.7962 20.089 22.7962 21.9802V27.709C22.7962 28.645 22.5682 29.329 22.1245 29.8066C21.6808 30.2674 21.1171 30.505 20.412 30.505C19.7236 30.505 19.1719 30.2674 18.7306 29.7778C18.2869 29.3002 18.0735 28.6042 18.0735 27.7114V14.4514C18.0735 13.5754 18.2725 12.9202 18.6708 12.5026C19.0521 12.073 19.587 11.8474 20.2753 11.8474C20.6878 11.8474 21.0549 11.9362 21.3906 12.1306C21.7264 12.3226 21.9999 12.6058 22.2013 12.9922C22.398 13.3786 22.4916 13.8418 22.4916 14.377ZM9.84895 1.21056C13.0294 0.0945607 16.6512 0.154561 19.3711 2.44415C19.8772 2.90495 20.4552 3.48575 20.6854 4.16975C20.9613 5.03377 19.7236 4.07857 19.5534 3.96097C18.666 3.39455 17.7808 2.91935 16.7878 2.59295C11.4392 0.987361 6.37829 3.88897 3.23144 8.39617C1.91705 10.3882 1.06078 12.4858 0.358017 14.7922C0.281265 15.0442 0.221302 15.373 0.0821879 15.5938C-0.056926 15.8482 0.022225 14.9122 0.022225 14.881C0.12776 13.9282 0.326836 13.0066 0.573883 12.085C2.02499 7.17457 5.2342 3.08495 9.84895 1.21056ZM16.0084 10.033C16.0084 12.1186 14.3174 13.8106 12.2331 13.8106C10.1488 13.8106 8.4602 12.1186 8.4602 10.033C8.4602 7.94737 10.1488 6.25537 12.2331 6.25537C14.3174 6.25537 16.0084 7.94497 16.0084 10.033Z" fill="#003A9B"></path>
				</svg>