<?xml version="1.0" encoding="UTF-8"?> <svg xmlns="http://www.w3.org/2000/svg" width="178" height="37" viewBox="0 0 178 37" fill="none"><path d="M12.7387 0.0576172C13.1384 0.358532 13.5817 0.590048 14.0063 0.851144C15.0106 1.4689 16.02 2.07812 17.0306 2.6919C16.9734 2.81647 16.8562 2.84605 16.7639 2.9018C12.7738 5.33016 8.78308 7.75739 4.7884 10.1784C4.59874 10.2933 4.52062 10.4139 4.52118 10.6448C4.52968 14.5493 4.52968 18.4544 4.52118 22.3588C4.52118 22.5887 4.59591 22.7104 4.7867 22.8247C6.07354 23.5961 7.35641 24.3748 8.63305 25.1626C8.81308 25.2736 8.93537 25.2656 9.11144 25.1581C13.2205 22.6529 17.3335 20.1546 21.4459 17.6546C21.5104 17.6153 21.575 17.5761 21.6401 17.5374C21.729 17.4851 21.7822 17.4981 21.7794 17.6148C21.7777 17.6716 21.7794 17.7285 21.7794 17.7854C21.7794 19.3491 21.776 20.9129 21.7839 22.4766C21.785 22.6785 21.7312 22.7997 21.5523 22.9083C17.3969 25.4277 13.2442 27.9522 9.09445 30.4813C8.92631 30.5837 8.80742 30.5808 8.64211 30.4801C5.8635 28.7839 3.08093 27.0938 0.298355 25.4038C0.20381 25.3464 0.12172 25.2593 0 25.2554V7.73691C0.117757 7.75739 0.189656 7.66637 0.274011 7.61518C3.62555 5.58102 6.97596 3.54572 10.3247 1.50815C11.1127 1.02862 11.8963 0.541128 12.6821 0.0576172C12.7008 0.0576172 12.72 0.0576172 12.7387 0.0576172Z" fill="#FF1E46"></path><path d="M14.3406 33.4721C14.4035 33.3623 14.5082 33.3304 14.5943 33.2781C18.5935 30.8452 22.5927 28.4128 26.5964 25.9867C26.7821 25.8741 26.8483 25.7581 26.8483 25.5396C26.841 21.6249 26.841 17.7102 26.8495 13.7954C26.8495 13.573 26.7753 13.4615 26.5936 13.3529C25.3232 12.5906 24.0556 11.8227 22.7959 11.0423C22.5847 10.9114 22.4381 10.9029 22.2196 11.0366C18.1275 13.5349 14.0292 16.023 9.93267 18.5134C9.9004 18.5327 9.86586 18.5498 9.83642 18.5725C9.66375 18.7039 9.58506 18.6937 9.59128 18.4445C9.60374 17.9616 9.59525 17.4775 9.59525 16.9946C9.59525 15.895 9.60034 14.7955 9.59128 13.6959C9.58959 13.494 9.64337 13.3717 9.82227 13.2636C13.9789 10.7442 18.1321 8.2197 22.2819 5.68952C22.4551 5.58372 22.5728 5.59794 22.7348 5.69691C25.5304 7.40285 28.3282 9.10481 31.13 10.8005C31.3038 10.9057 31.3729 11.0116 31.3729 11.2209C31.3667 16.8512 31.3667 22.4821 31.3729 28.1125C31.3729 28.3173 31.3146 28.4322 31.1374 28.5397C27.0533 31.0147 22.9725 33.4954 18.8946 35.9806C18.7276 36.0824 18.6104 36.0842 18.4423 35.9806C17.1481 35.1843 15.8477 34.3987 14.5495 33.6091C14.4793 33.5665 14.4125 33.5187 14.3418 33.4721H14.3406Z" fill="#FF1E46"></path><path d="M50.894 30.2984C56.2601 30.2984 59.9248 27.6684 59.9248 23.1973C59.9248 13.8935 46.7058 18.6604 46.7058 13.0716C46.7058 11.2305 48.2763 9.88262 50.894 9.88262C53.4462 9.88262 55.1149 11.2305 55.8348 13.3674L59.3031 12.3812C58.2888 8.86347 55.4748 6.5293 51.123 6.5293C46.3458 6.5293 43.0084 9.32373 43.0084 13.4989C43.0084 22.8028 56.1293 17.97 56.1293 23.7562C56.1293 25.6958 54.1006 26.9451 51.123 26.9451C48.1455 26.9451 46.215 25.5314 45.3969 22.5726L41.994 23.6247C42.8775 27.7999 46.0514 30.2984 50.894 30.2984Z" fill="#222021"></path><path d="M70.0127 12.9729C65.301 12.9729 61.898 16.5893 61.898 21.7507C61.898 26.978 65.5954 30.2984 70.2417 30.2984C73.3829 30.2984 75.8369 28.7533 77.1785 26.4191L74.7899 24.7424C73.8083 26.2218 72.2377 27.2081 70.3072 27.2081C67.8204 27.2081 65.6936 25.5643 65.53 22.6384H77.473C78.2255 17.5098 75.1825 12.9729 70.0127 12.9729ZM69.9473 15.9317C72.205 15.9317 73.7756 17.5427 74.0046 19.9426H65.6609C65.8899 17.5098 67.6568 15.9317 69.9473 15.9317Z" fill="#222021"></path><path d="M89.6348 12.9729C87.3443 12.9729 85.512 13.9921 84.3668 15.9975V13.4332H80.6039V29.9697H84.3668V21.8822C84.3668 18.0029 86.3627 16.1948 88.6531 16.1948C90.7145 16.1948 91.9579 17.6413 91.9579 19.9755V29.9697H95.7208V19.4823C95.7208 15.4715 93.2667 12.9729 89.6348 12.9729Z" fill="#222021"></path><path d="M107.498 26.4191C107.04 26.8465 106.484 27.1424 105.764 27.1424C104.717 27.1424 104.128 26.3862 104.128 25.0383V16.655H108.447V13.4332H104.128V8.10733H100.365V13.4332H97.7474V16.655H100.365V25.4328C100.365 28.556 102.034 30.2984 105.044 30.2984C107.073 30.2984 108.512 29.5752 109.461 28.4903L107.498 26.4191Z" fill="#222021"></path><path d="M111.389 10.5073H115.381V6.86784H111.389V10.5073ZM111.52 29.9697H115.282V13.4332H111.52V29.9697Z" fill="#222021"></path><path d="M123.434 26.4848V6.86784H119.54V29.9697H132.236V26.4848H123.434Z" fill="#222021"></path><path d="M135.119 10.5073H139.111V6.86784H135.119V10.5073ZM135.25 29.9697H139.013V13.4332H135.25V29.9697Z" fill="#222021"></path><path d="M151.974 12.9729C149.683 12.9729 147.851 13.9921 146.706 15.9975V13.4332H142.943V29.9697H146.706V21.8822C146.706 18.0029 148.702 16.1948 150.992 16.1948C153.054 16.1948 154.297 17.6413 154.297 19.9755V29.9697H158.06V19.4823C158.06 15.4715 155.606 12.9729 151.974 12.9729Z" fill="#222021"></path><path d="M173.044 29.9697H177.428L171.048 19.6796L176.872 13.4332H172.259L165.649 20.633V6.95668H161.886V29.9697H165.649V25.4328L168.496 22.4083L173.044 29.9697Z" fill="#222021"></path></svg> 