<svg aria-labelledby="logo" role="img" xmlns="http://www.w3.org/2000/svg" fill="none" viewBox="0 5.347794037940378 58.124267291910904 69.37669376693768" xmlns:xlink="http://www.w3.org/1999/xlink" style="max-height: 500px" width="58.124267291910904" height="69.37669376693768"><title fill="none" id="logo">Harvard Business School Logo</title><g fill="none" class="hbs-logo__shield"><path fill="black" d="M0 5.38983V23.9955C0 44.6467 10.1071 62.4978 28.4577 74.2615L28.9986 74.6102L29.5396 74.2615C47.8929 62.4978 58 44.6467 58 23.9955V5.38983H0Z"/><path fill="#A41034" d="M55.9804 7.42499H2.01562V22.9801H55.9804V7.42499Z"/><path fill="#FFFFFF" d="M54.8624 25.0109C53.8346 25.4821 53.1179 26.5253 53.1179 27.7374C53.1179 28.4401 53.3586 29.0829 53.7616 29.5949C53.2531 29.1891 52.6121 28.944 51.9117 28.944C50.2673 28.944 48.9366 30.2867 48.9366 31.94C48.9366 32.6428 49.1773 33.2855 49.5803 33.7976C49.0718 33.3918 48.4308 33.1466 47.7304 33.1466C46.086 33.1466 44.7553 34.4894 44.7553 36.1427C44.7553 36.8454 44.996 37.4882 45.399 38.0003C44.8905 37.5945 44.2495 37.3493 43.5491 37.3493C41.9047 37.3493 40.574 38.6921 40.574 40.3454C40.574 41.0672 40.8282 41.729 41.2502 42.2465C40.766 41.8516 40.1494 41.6146 39.4759 41.6146C37.9154 41.6146 36.6523 42.8893 36.6523 44.4582C36.6523 46.0298 37.9181 47.3017 39.4759 47.3017C40.1467 47.3017 40.7633 47.0648 41.2502 46.6699C40.8282 47.1874 40.574 47.8492 40.574 48.571C40.574 50.227 41.9074 51.5671 43.5491 51.5671C44.2495 51.5671 44.8905 51.3219 45.399 50.9161C44.9987 51.4282 44.7553 52.071 44.7553 52.7737C44.7553 53.9476 45.426 54.9635 46.4024 55.4538C52.5013 46.5664 55.8144 36.2272 55.9767 25.0109H54.8624Z"/><path fill="#FFFFFF" d="M17.7656 25.7763C17.7656 27.4323 19.099 28.7724 20.7407 28.7724C21.4385 28.7724 22.0767 28.53 22.5852 28.1241C22.1822 28.6362 21.9388 29.2817 21.9388 29.9871C21.9388 31.6432 23.2722 32.9832 24.9139 32.9832C25.6306 32.9832 26.2878 32.7272 26.8017 32.3023C26.4095 32.7898 26.1742 33.4108 26.1742 34.0891C26.1742 35.6606 27.44 36.9326 28.9978 36.9326C30.5583 36.9326 31.8214 35.6579 31.8214 34.0891C31.8214 33.4136 31.5861 32.7926 31.1939 32.3023C31.7078 32.7272 32.365 32.9832 33.0817 32.9832C34.7261 32.9832 36.0568 31.6404 36.0568 29.9871C36.0568 29.2817 35.8134 28.6362 35.4104 28.1241C35.9189 28.5272 36.5571 28.7724 37.2549 28.7724C38.8993 28.7724 40.23 27.4296 40.23 25.7763C40.23 25.5121 40.1948 25.2561 40.1299 25.0109H17.863C17.8035 25.2561 17.7656 25.5121 17.7656 25.7763Z"/><path fill="#FFFFFF" d="M37.2588 60.0275C36.561 60.0275 35.9228 60.2699 35.4143 60.6757C35.8173 60.1637 36.0607 59.5181 36.0607 58.8127C36.0607 57.1567 34.7273 55.8166 33.0856 55.8166C32.3689 55.8166 31.7117 56.0727 31.1978 56.4976C31.59 56.01 31.8253 55.389 31.8253 54.7108C31.8253 53.1392 30.5596 51.8672 29.0017 51.8672C27.4412 51.8672 26.1781 53.1419 26.1781 54.7108C26.1781 55.3863 26.4134 56.0073 26.8056 56.4976C26.2917 56.0727 25.6345 55.8166 24.9178 55.8166C23.2734 55.8166 21.9427 57.1594 21.9427 58.8127C21.9427 59.5181 22.1861 60.1637 22.5891 60.6757C22.0807 60.2726 21.4424 60.0275 20.7446 60.0275C19.1164 60.0275 17.7966 61.3458 17.7695 62.9773C21.0421 66.3547 24.7934 69.4433 28.999 72.1916C33.2074 69.4406 36.9586 66.3547 40.2312 62.9773C40.2095 61.3458 38.887 60.0275 37.2588 60.0275Z"/><path fill="#FFFFFF" d="M13.2499 52.7737C13.2499 52.071 13.0092 51.4282 12.6062 50.9161C13.1147 51.3219 13.7557 51.5671 14.4562 51.5671C16.1005 51.5671 17.4312 50.2243 17.4312 48.571C17.4312 47.8492 17.177 47.1874 16.7551 46.6699C17.2392 47.0648 17.8558 47.3017 18.5293 47.3017C20.0898 47.3017 21.3529 46.0271 21.3529 44.4582C21.3529 42.8866 20.0871 41.6146 18.5293 41.6146C17.8585 41.6146 17.2419 41.8516 16.7551 42.2465C17.177 41.729 17.4312 41.0672 17.4312 40.3454C17.4312 38.6894 16.0978 37.3493 14.4562 37.3493C13.7557 37.3493 13.1147 37.5945 12.6062 38.0003C13.0065 37.4882 13.2499 36.8454 13.2499 36.1427C13.2499 34.4867 11.9165 33.1466 10.2749 33.1466C9.57436 33.1466 8.93337 33.3918 8.42491 33.7976C8.82519 33.2855 9.0686 32.6428 9.0686 31.94C9.0686 30.284 7.73524 28.944 6.09355 28.944C5.39306 28.944 4.75207 29.1891 4.24361 29.5949C4.64389 29.0829 4.8873 28.4401 4.8873 27.7374C4.8873 26.5253 4.17058 25.4849 3.14284 25.0109H2.03125C2.18541 36.2135 5.50124 46.5555 11.6082 55.4511C12.5792 54.9608 13.2499 53.9476 13.2499 52.7737Z"/><path fill="#FFFFFF" d="M19.5135 31.6814C19.6163 31.6814 19.6406 31.4417 19.7272 31.1748C19.8327 30.8425 19.9706 30.6736 19.8868 30.5156C19.8191 30.3876 19.7056 30.404 19.4838 30.404C19.3323 30.404 19.1159 30.3685 19.0456 30.4802C18.9618 30.6137 19.07 30.8969 19.17 31.1584C19.2755 31.4499 19.381 31.6814 19.5135 31.6814Z"/><path fill="#FFFFFF" d="M19.7319 33.6263C20.0564 33.994 20.4351 34.3562 20.5973 34.3562C20.784 34.3562 21.1112 33.7598 21.1112 33.3294C21.1112 32.8991 20.9273 32.6267 20.5568 32.6267C18.9746 32.6267 18.7312 31.0469 18.5851 30.415C18.4688 29.9166 18.3606 29.4699 17.8603 29.4699C17.3599 29.4699 17.2518 29.9166 17.1355 30.415C16.9894 31.0469 16.746 32.6267 15.1638 32.6267C14.796 32.6267 14.6094 32.8991 14.6094 33.3294C14.6094 33.7598 14.9366 34.3562 15.1232 34.3562C15.2855 34.3562 15.6642 33.994 15.9887 33.6263C16.2943 33.2804 16.508 32.7847 16.6351 32.9426C16.7595 33.0979 16.462 33.6045 16.2024 33.9858C15.8183 34.5496 15.4667 34.7321 15.4667 35.0045C15.4667 35.206 15.6696 35.4294 15.84 35.5874C16.0131 35.7508 16.197 35.8761 16.3809 35.8761C16.6054 35.8761 16.8975 35.345 17.103 34.4625C17.2382 33.8769 17.195 33.5201 17.3518 33.5201C17.4708 33.5201 17.5439 33.8033 17.5195 34.3154C17.4952 34.871 17.4249 35.1843 17.2437 35.7372C17.1598 35.9905 17.0408 36.1811 17.1923 36.3282C17.3383 36.4671 17.5844 36.5325 17.8603 36.5325C18.1362 36.5325 18.3823 36.4698 18.5283 36.3282C18.6798 36.1811 18.5608 35.9905 18.4769 35.7372C18.2957 35.1843 18.2254 34.871 18.2011 34.3154C18.1767 33.8033 18.2498 33.5201 18.3688 33.5201C18.5256 33.5201 18.4824 33.8769 18.6176 34.4625C18.8204 35.3422 19.1152 35.8761 19.3397 35.8761C19.5236 35.8761 19.7075 35.7508 19.8806 35.5874C20.051 35.4267 20.2539 35.2033 20.2539 35.0045C20.2539 34.7321 19.9023 34.5524 19.5182 33.9858C19.2586 33.6045 18.9584 33.0979 19.0855 32.9426C19.2126 32.7847 19.4263 33.2804 19.7319 33.6263Z"/><path fill="#FFFFFF" d="M41.7831 31.6812C41.8858 31.6812 41.9102 31.4415 41.9967 31.1746C42.1022 30.8423 42.2401 30.6734 42.1563 30.5154C42.0887 30.3874 41.9751 30.4038 41.7533 30.4038C41.6019 30.4038 41.3855 30.3684 41.3152 30.48C41.2313 30.6135 41.3395 30.8968 41.4396 31.1582C41.5451 31.4497 41.6505 31.6812 41.7831 31.6812Z"/><path fill="#FFFFFF" d="M42.0053 33.6263C42.3299 33.994 42.7085 34.3562 42.8708 34.3562C43.0574 34.3562 43.3847 33.7598 43.3847 33.3294C43.3847 32.8991 43.2007 32.6267 42.8302 32.6267C41.248 32.6267 41.0046 31.0469 40.8586 30.415C40.7423 29.9166 40.6341 29.4699 40.1337 29.4699C39.6334 29.4699 39.5252 29.9166 39.4089 30.415C39.2629 31.0469 39.0194 32.6267 37.4373 32.6267C37.0694 32.6267 36.8828 32.8991 36.8828 33.3294C36.8828 33.7598 37.2101 34.3562 37.3967 34.3562C37.559 34.3562 37.9376 33.994 38.2622 33.6263C38.5678 33.2804 38.7814 32.7847 38.9086 32.9426C39.033 33.0979 38.7355 33.6045 38.4758 33.9858C38.0918 34.5496 37.7402 34.7321 37.7402 35.0045C37.7402 35.206 37.943 35.4294 38.1134 35.5874C38.2865 35.7508 38.4704 35.8761 38.6543 35.8761C38.8788 35.8761 39.1709 35.345 39.3764 34.4625C39.5117 33.8769 39.4684 33.5201 39.6253 33.5201C39.7443 33.5201 39.8173 33.8033 39.793 34.3154C39.7686 34.871 39.6983 35.1843 39.5171 35.7372C39.4332 35.9905 39.3142 36.1811 39.4657 36.3282C39.6117 36.4671 39.8579 36.5325 40.1337 36.5325C40.4096 36.5325 40.6557 36.4698 40.8018 36.3282C40.9532 36.1811 40.8342 35.9905 40.7504 35.7372C40.5692 35.1843 40.4989 34.871 40.4745 34.3154C40.4502 33.8033 40.5232 33.5201 40.6422 33.5201C40.7991 33.5201 40.7558 33.8769 40.891 34.4625C41.0939 35.3422 41.3887 35.8761 41.6131 35.8761C41.7971 35.8761 41.981 35.7508 42.1541 35.5874C42.3245 35.4267 42.5273 35.2033 42.5273 35.0045C42.5273 34.7321 42.1757 34.5524 41.7916 33.9858C41.532 33.6045 41.2318 33.0979 41.3589 32.9426C41.486 32.7847 41.6997 33.2804 42.0053 33.6263Z"/><path fill="#FFFFFF" d="M38.4838 31.682C38.6163 31.682 38.7245 31.4504 38.8327 31.159C38.9301 30.8975 39.041 30.6115 38.9571 30.4808C38.8841 30.3664 38.6677 30.4045 38.519 30.4045C38.2972 30.4045 38.1836 30.3882 38.116 30.5162C38.0322 30.6742 38.1674 30.8403 38.2756 31.1753C38.3567 31.445 38.381 31.682 38.4838 31.682Z"/><path fill="#FFFFFF" d="M19.5135 53.8894C19.6163 53.8894 19.6406 53.6497 19.7272 53.3828C19.8327 53.0505 19.9706 52.8816 19.8868 52.7236C19.8191 52.5956 19.7056 52.612 19.4838 52.612C19.3323 52.612 19.1159 52.5766 19.0456 52.6882C18.9618 52.8217 19.07 53.105 19.17 53.3664C19.2755 53.6579 19.381 53.8894 19.5135 53.8894Z"/><path fill="#FFFFFF" d="M19.7319 55.8333C20.0564 56.201 20.4351 56.5633 20.5973 56.5633C20.784 56.5633 21.1112 55.9668 21.1112 55.5364C21.1112 55.1061 20.9273 54.8337 20.5568 54.8337C18.9746 54.8337 18.7312 53.254 18.5851 52.6221C18.4688 52.1236 18.3606 51.6769 17.8603 51.6769C17.3599 51.6769 17.2518 52.1236 17.1355 52.6221C16.9894 53.254 16.746 54.8337 15.1638 54.8337C14.796 54.8337 14.6094 55.1061 14.6094 55.5364C14.6094 55.9668 14.9366 56.5633 15.1232 56.5633C15.2855 56.5633 15.6642 56.201 15.9887 55.8333C16.2943 55.4874 16.508 54.9917 16.6351 55.1497C16.7595 55.3049 16.462 55.8115 16.2024 56.1928C15.8183 56.7567 15.4667 56.9391 15.4667 57.2115C15.4667 57.4131 15.6696 57.6364 15.84 57.7944C16.0131 57.9578 16.197 58.0831 16.3809 58.0831C16.6054 58.0831 16.8975 57.552 17.103 56.6695C17.2382 56.0839 17.195 55.7271 17.3518 55.7271C17.4708 55.7271 17.5439 56.0104 17.5195 56.5224C17.4952 57.0781 17.4249 57.3913 17.2437 57.9442C17.1598 58.1975 17.0408 58.3882 17.1923 58.5352C17.3383 58.6741 17.5844 58.7395 17.8603 58.7395C18.1362 58.7395 18.3823 58.6769 18.5283 58.5352C18.6798 58.3882 18.5608 58.1975 18.4769 57.9442C18.2957 57.3913 18.2254 57.0781 18.2011 56.5224C18.1767 56.0104 18.2498 55.7271 18.3688 55.7271C18.5256 55.7271 18.4824 56.0839 18.6176 56.6695C18.8204 57.5493 19.1152 58.0831 19.3397 58.0831C19.5236 58.0831 19.7075 57.9578 19.8806 57.7944C20.051 57.6337 20.2539 57.4103 20.2539 57.2115C20.2539 56.9391 19.9023 56.7594 19.5182 56.1928C19.2586 55.8115 18.9584 55.3049 19.0855 55.1497C19.2126 54.9917 19.4263 55.4874 19.7319 55.8333Z"/><path fill="#FFFFFF" d="M41.7831 53.8894C41.8858 53.8894 41.9102 53.6497 41.9967 53.3828C42.1022 53.0505 42.2401 52.8816 42.1563 52.7236C42.0887 52.5956 41.9751 52.612 41.7533 52.612C41.6019 52.612 41.3855 52.5766 41.3152 52.6882C41.2313 52.8217 41.3395 53.105 41.4396 53.3664C41.5451 53.6579 41.6505 53.8894 41.7831 53.8894Z"/><path fill="#FFFFFF" d="M36.8828 55.5364C36.8828 55.9668 37.2101 56.5633 37.3967 56.5633C37.559 56.5633 37.9376 56.201 38.2622 55.8333C38.5678 55.4874 38.7814 54.9917 38.9086 55.1497C39.033 55.3049 38.7355 55.8115 38.4758 56.1928C38.0918 56.7567 37.7402 56.9391 37.7402 57.2115C37.7402 57.4131 37.943 57.6364 38.1134 57.7944C38.2865 57.9578 38.4704 58.0831 38.6543 58.0831C38.8788 58.0831 39.1709 57.552 39.3764 56.6695C39.5117 56.0839 39.4684 55.7271 39.6253 55.7271C39.7443 55.7271 39.8173 56.0104 39.793 56.5224C39.7686 57.0781 39.6983 57.3913 39.5171 57.9442C39.4332 58.1975 39.3142 58.3882 39.4657 58.5352C39.6117 58.6741 39.8579 58.7395 40.1337 58.7395C40.4096 58.7395 40.6557 58.6769 40.8018 58.5352C40.9532 58.3882 40.8342 58.1975 40.7504 57.9442C40.5692 57.3913 40.4989 57.0781 40.4745 56.5224C40.4502 56.0104 40.5232 55.7271 40.6422 55.7271C40.7991 55.7271 40.7558 56.0839 40.891 56.6695C41.0939 57.5493 41.3887 58.0831 41.6131 58.0831C41.7971 58.0831 41.981 57.9578 42.1541 57.7944C42.3245 57.6337 42.5273 57.4103 42.5273 57.2115C42.5273 56.9391 42.1757 56.7594 41.7916 56.1928C41.532 55.8115 41.2318 55.3049 41.3589 55.1497C41.486 54.9917 41.6997 55.4874 42.0053 55.8333C42.3299 56.201 42.7085 56.5633 42.8708 56.5633C43.0574 56.5633 43.3847 55.9668 43.3847 55.5364C43.3847 55.1061 43.2007 54.8337 42.8302 54.8337C41.248 54.8337 41.0046 53.254 40.8586 52.6221C40.7423 52.1236 40.6341 51.6769 40.1337 51.6769C39.6334 51.6769 39.5252 52.1236 39.4089 52.6221C39.2629 53.254 39.0194 54.8337 37.4373 54.8337C37.0667 54.8337 36.8828 55.1061 36.8828 55.5364Z"/><path fill="#FFFFFF" d="M38.4838 53.8882C38.6163 53.8882 38.7245 53.6567 38.8327 53.3652C38.9301 53.1038 39.041 52.8178 38.9571 52.687C38.8841 52.5726 38.6677 52.6108 38.519 52.6108C38.2972 52.6108 38.1836 52.5944 38.116 52.7224C38.0322 52.8804 38.1674 53.0466 38.2756 53.3816C38.3567 53.6512 38.381 53.8882 38.4838 53.8882Z"/><path fill="#FFFFFF" d="M30.7327 42.4972C30.8408 42.4972 30.8679 42.2466 30.9571 41.9633C31.068 41.612 31.2114 41.4377 31.1248 41.2715C31.0545 41.1353 30.9328 41.1544 30.7002 41.1544C30.5406 41.1544 30.3134 41.1163 30.2377 41.2361C30.1512 41.375 30.2648 41.6746 30.3675 41.9497C30.4838 42.252 30.5947 42.4972 30.7327 42.4972Z"/><path fill="#FFFFFF" d="M30.9639 44.5382C31.3046 44.9249 31.7022 45.3035 31.8726 45.3035C32.0673 45.3035 32.4108 44.6771 32.4108 44.2249C32.4108 43.7728 32.2161 43.4868 31.8293 43.4868C30.1687 43.4868 29.9118 41.8281 29.7603 41.1662C29.6386 40.6405 29.525 40.1721 29.0003 40.1721C28.4756 40.1721 28.3593 40.6405 28.2403 41.1662C28.0862 41.8281 27.832 43.4868 26.1713 43.4868C25.7846 43.4868 25.5898 43.7728 25.5898 44.2249C25.5898 44.6771 25.9333 45.3035 26.1281 45.3035C26.2984 45.3035 26.696 44.9222 27.0368 44.5382C27.3586 44.1732 27.5831 43.6557 27.7157 43.8191C27.8482 43.9825 27.5344 44.5136 27.2613 44.9168C26.8583 45.5105 26.4878 45.7012 26.4878 45.9872C26.4878 46.1969 26.7014 46.4311 26.8799 46.6C27.0611 46.7716 27.2559 46.9023 27.4479 46.9023C27.6832 46.9023 27.9915 46.344 28.2052 45.4179C28.3485 44.8051 28.2998 44.4292 28.4648 44.4292C28.5892 44.4292 28.665 44.7288 28.6406 45.2654C28.6136 45.8483 28.5406 46.1778 28.3512 46.758C28.2647 47.0249 28.1376 47.2237 28.2971 47.379C28.4513 47.5261 28.7109 47.5914 29.0003 47.5914C29.2897 47.5914 29.5494 47.5261 29.7035 47.379C29.8631 47.2265 29.736 47.0249 29.6494 46.758C29.4601 46.1778 29.3871 45.8483 29.36 45.2654C29.3357 44.7288 29.4114 44.4292 29.5358 44.4292C29.7008 44.4292 29.6548 44.8024 29.7955 45.4179C30.0091 46.344 30.3175 46.9023 30.5528 46.9023C30.7448 46.9023 30.9368 46.7689 31.1207 46.6C31.2992 46.4311 31.5129 46.1969 31.5129 45.9872C31.5129 45.7012 31.1451 45.5105 30.7394 44.9168C30.4662 44.5164 30.1525 43.9853 30.285 43.8191C30.4175 43.6557 30.642 44.1759 30.9639 44.5382Z"/><path fill="#FFFFFF" d="M27.2667 42.4972C27.4073 42.4972 27.5182 42.252 27.6318 41.9497C27.7346 41.6746 27.8481 41.375 27.7616 41.2361C27.6859 41.1163 27.4587 41.1544 27.2991 41.1544C27.0665 41.1544 26.9475 41.138 26.8745 41.2715C26.788 41.4377 26.9286 41.612 27.0422 41.9633C27.1314 42.2466 27.1585 42.4972 27.2667 42.4972Z"/><path fill="#FFFFFF" d="M45.9543 20.969C45.6108 20.969 45.297 20.7892 45.1158 20.4896L45.059 20.397H38.9304V18.4332H38.1704C37.8432 18.4332 37.5781 18.1663 37.5781 17.8367C37.5781 17.5071 37.8432 17.2375 38.1704 17.2375H38.9304V13.0185H38.1704C37.8432 13.0185 37.5781 12.7488 37.5781 12.4192C37.5781 12.0897 37.8432 11.82 38.1704 11.82H38.9304V10.006H44.0881C44.7859 10.006 45.416 10.3874 45.7352 11.0002L45.9083 11.3325L46.0814 11.0029C46.4005 10.3901 47.0334 10.0088 47.7312 10.0088H52.8185V11.8228H53.5812C53.9085 11.8228 54.1735 12.0924 54.1735 12.422C54.1735 12.7515 53.9085 13.0212 53.5812 13.0212H52.8185V17.2348H53.5812C53.9085 17.2348 54.1735 17.5044 54.1735 17.834C54.1735 18.1635 53.9085 18.4305 53.5812 18.4305H52.8185V20.3943H46.8495L46.7927 20.4896C46.6088 20.7892 46.2977 20.969 45.9543 20.969Z"/><path fill="#FFFFFF" d="M29.0047 20.969C28.6612 20.969 28.3475 20.7892 28.1663 20.4896L28.1095 20.397H22.0945V18.4332H21.3345C21.0072 18.4332 20.7422 18.1663 20.7422 17.8367C20.7422 17.5071 21.0072 17.2375 21.3345 17.2375H22.0945V13.0185H21.3345C21.0072 13.0185 20.7422 12.7488 20.7422 12.4192C20.7422 12.0897 21.0072 11.82 21.3345 11.82H22.0945V10.006H27.1386C27.8634 10.006 28.526 10.4364 28.8289 11.101L29.0047 11.4905L29.1805 11.101C29.4834 10.4364 30.1461 10.006 30.8709 10.006H34.8845V11.82H35.6445C35.9718 11.82 36.2368 12.0897 36.2368 12.4192C36.2368 12.7488 35.9718 13.0185 35.6445 13.0185H34.8845V17.2348H35.6445C35.9718 17.2348 36.2368 17.5044 36.2368 17.834C36.2368 18.1635 35.9718 18.4305 35.6445 18.4305H34.8845V20.3943H29.8999L29.8431 20.4869C29.6592 20.7892 29.3482 20.969 29.0047 20.969Z"/><path fill="#FFFFFF" d="M11.6095 20.969C11.2661 20.969 10.9523 20.7892 10.7711 20.4896L10.7143 20.397H5.13745V18.4332H4.37746C4.05021 18.4332 3.78516 18.1663 3.78516 17.8367C3.78516 17.5071 4.05021 17.2375 4.37746 17.2375H5.13745V13.0185H4.37746C4.05021 13.0185 3.78516 12.7488 3.78516 12.4192C3.78516 12.0897 4.05021 11.82 4.37746 11.82H5.13745V10.006H9.74608C10.4709 10.006 11.1335 10.4364 11.4337 11.101L11.6095 11.4905L11.7853 11.101C12.0883 10.4364 12.7509 10.006 13.4757 10.006H18.0843V11.82H18.8443C19.1716 11.82 19.4366 12.0897 19.4366 12.4192C19.4366 12.7488 19.1716 13.0185 18.8443 13.0185H18.0843V17.2348H18.8443C19.1716 17.2348 19.4366 17.5044 19.4366 17.834C19.4366 18.1635 19.1716 18.4305 18.8443 18.4305H18.0843V20.3943H12.5048L12.448 20.4869C12.2668 20.7892 11.953 20.969 11.6095 20.969Z"/><path fill="black" d="M47.7743 16.8046C47.869 16.8046 47.85 16.7147 48.1015 16.7147C48.3531 16.7147 48.6046 16.8917 48.9156 16.8917C49.6323 16.8917 50.2733 16.189 50.2733 15.5081C50.2733 14.8844 50.1192 14.6882 49.5242 14.2388C48.9292 13.7894 48.3774 13.6069 48.3774 13.0513C48.3774 12.8525 48.4856 12.335 48.9156 12.335C49.4214 12.335 49.5106 12.877 49.6486 13.2801C49.7676 13.6287 50.0029 13.4898 49.9948 13.291C49.9839 13.0949 49.9839 12.5392 49.9839 12.414C49.9839 12.2887 49.846 12.1715 49.7784 12.2641C49.7324 12.3268 49.5106 12.3104 49.489 12.2941C49.3186 12.1661 49.1536 12.1389 48.8291 12.1389C48.1638 12.1389 47.7527 12.8089 47.7527 13.2338C47.7527 13.6614 47.9122 14.0073 48.6343 14.5493C49.3565 15.0941 49.5512 15.2521 49.5512 15.7287C49.5512 16.0256 49.4376 16.6384 48.9075 16.6384C48.3828 16.6384 48.1854 16.1427 48.0502 15.7505C47.9041 15.331 47.6391 15.2711 47.6391 15.6933C47.6391 15.9412 47.6391 16.4096 47.6147 16.5703C47.585 16.731 47.685 16.8046 47.7743 16.8046Z"/><path fill="black" d="M43.5897 12.4591C43.7331 12.4591 43.9386 12.5381 44.1415 13.0937C44.2145 13.2898 44.2605 13.4287 44.3822 13.4287C44.5012 13.4287 44.5147 13.2217 44.5147 13.0937C44.5147 12.9657 44.5012 12.4945 44.5012 12.3883C44.5012 12.2276 44.4904 12.1921 43.9359 12.2276C43.5411 12.2521 43.2625 12.263 43.0353 12.263C42.8054 12.263 42.5322 12.2521 42.1347 12.2276C41.5829 12.1921 41.5721 12.2276 41.5721 12.3883C41.5721 12.4945 41.5586 12.9657 41.5586 13.0937C41.5586 13.2217 41.5721 13.4287 41.6884 13.4287C41.8128 13.4287 41.8588 13.2898 41.9291 13.0937C42.1347 12.5381 42.3375 12.4591 42.4836 12.4591C42.6269 12.4591 42.6702 12.5735 42.6702 12.8731V16.0816C42.6648 16.4384 42.6269 16.4493 42.5187 16.5419C42.4078 16.6345 42.4349 16.7979 42.6134 16.7843C42.7919 16.7707 42.8595 16.7707 43.0353 16.7707C43.2111 16.7707 43.2814 16.7707 43.4572 16.7843C43.6357 16.7952 43.6628 16.6345 43.5546 16.5419C43.4437 16.4493 43.4058 16.4384 43.4031 16.0816V12.8731C43.4058 12.5735 43.4464 12.4591 43.5897 12.4591Z"/><path fill="black" d="M44.2334 16.5524C44.1387 16.645 44.1415 16.8139 44.2767 16.8003C44.4119 16.7894 44.4633 16.7894 44.5958 16.7894C44.7283 16.7894 44.777 16.7894 44.9096 16.8003C45.0421 16.8139 45.0854 16.675 45.0177 16.5824C44.9474 16.4925 44.8311 16.4789 44.8879 16.1221L45.0935 15.4711C45.1476 15.3268 45.4775 15.3785 45.6506 15.3785C45.821 15.3785 46.2105 15.3131 46.2835 15.5174L46.4268 16.1194C46.4999 16.4762 46.4674 16.4898 46.3782 16.5797C46.2943 16.6723 46.3484 16.8112 46.5161 16.7976C46.6865 16.7867 46.8001 16.7867 46.9705 16.7867C47.1435 16.7867 47.1625 16.7867 47.3356 16.7976C47.5087 16.8112 47.4843 16.5878 47.3978 16.5279C47.2734 16.4353 47.268 16.3563 47.1841 16.1194L46.1996 12.6112C46.1239 12.3198 46.013 12.1264 45.9454 12.1427C45.7318 12.1918 45.4748 12.249 45.4883 12.3933L45.5046 12.7719L44.5066 16.1221C44.3632 16.468 44.3308 16.4598 44.2334 16.5524ZM45.2503 14.831L45.5154 13.8641C45.6723 13.3194 45.7723 13.3003 45.8913 13.9023L46.1131 14.8256C46.1915 15.0544 46.1672 15.1034 45.7372 15.1034C45.1827 15.1007 45.1476 15.0598 45.2503 14.831Z"/><path fill="black" d="M53.5728 17.0404H53.0075V13.2163H53.5755C54.0082 13.2163 54.3625 12.8595 54.3625 12.421C54.3625 11.9825 54.011 11.6257 53.5755 11.6257H53.0075V9.81171H47.7255C46.9466 9.81171 46.2488 10.2475 45.9026 10.9094C45.5564 10.2475 44.8613 9.81171 44.0824 9.81171H38.7273V11.6257H38.162C37.7266 11.6257 37.375 11.9825 37.375 12.421C37.375 12.8595 37.7293 13.2163 38.162 13.2163H38.7273V17.0432H38.162C37.7266 17.0432 37.375 17.4 37.375 17.8385C37.375 18.277 37.7293 18.6311 38.162 18.6311H38.7273V20.5949H44.9424C45.1507 20.9381 45.5212 21.1696 45.9459 21.1696C46.3732 21.1696 46.7437 20.9381 46.9493 20.5949H53.0075V18.6311H53.5755C54.0082 18.6311 54.3625 18.2743 54.3625 17.8385C54.3598 17.3972 54.0082 17.0404 53.5728 17.0404ZM51.0792 10.2529L51.7526 10.9502V19.184L51.0792 18.5793V10.2529ZM41.1452 10.1821H44.0824C44.8478 10.1821 45.5158 10.6915 45.7078 11.4214L45.743 11.5603H46.0622L46.0973 11.4214C46.2893 10.6915 46.9574 10.1821 47.7228 10.1821H50.7086V18.4758L47.812 18.4704C47.1413 18.4704 46.6707 18.5875 46.3164 18.8517C46.2001 18.8136 46.0757 18.7863 45.9459 18.7863C45.816 18.7863 45.6916 18.8136 45.5753 18.8517C45.221 18.5848 44.7477 18.4704 44.0797 18.4704L41.1452 18.4758V10.1821ZM40.7774 18.5793L40.1039 19.184V10.9502L40.7747 10.2529L40.7774 18.5793ZM39.0951 20.2217V18.2579H38.162C37.9321 18.2579 37.7428 18.07 37.7428 17.8358C37.7428 17.6015 37.9321 17.4136 38.162 17.4136H39.0951V12.8432H38.162C37.9321 12.8432 37.7428 12.6525 37.7428 12.421C37.7428 12.1868 37.9321 11.9988 38.162 11.9988H39.0951V10.1821H40.3284L39.7361 10.7977V19.7832H44.7883C44.7775 19.8458 44.7694 19.9112 44.7694 19.9766C44.7694 20.061 44.7775 20.1427 44.7937 20.219H39.0951V20.2217V20.2217ZM44.9154 19.4128H40.4041L41.0316 18.849L44.0824 18.8435C44.599 18.8435 44.9506 18.9225 45.2075 19.0587C45.0885 19.1595 44.9911 19.2766 44.9154 19.4128ZM45.9486 20.7665C45.5158 20.7665 45.1642 20.4124 45.1642 19.9766C45.1642 19.5408 45.5158 19.1867 45.9486 19.1867C46.3813 19.1867 46.7329 19.5408 46.7329 19.9766C46.7329 20.4124 46.3786 20.7665 45.9486 20.7665ZM46.6869 19.0614C46.9466 18.9225 47.2981 18.8462 47.812 18.8462L50.8222 18.8517L51.4524 19.4155H46.9763C46.906 19.2766 46.8059 19.1595 46.6869 19.0614ZM53.5728 18.2579H52.637V20.2217H47.1007C47.1169 20.1427 47.1251 20.061 47.1251 19.9793C47.1251 19.9139 47.1169 19.8486 47.1061 19.7859H52.1204V10.8004L51.5254 10.1849H52.6343V11.9988H53.5701C53.8 11.9988 53.9893 12.1895 53.9893 12.421C53.9893 12.6553 53.8027 12.8432 53.5701 12.8432H52.6343V17.4109H53.5701C53.8 17.4109 53.9893 17.6015 53.9893 17.833C53.992 18.0673 53.8027 18.2579 53.5728 18.2579Z"/><path fill="black" d="M30.4705 16.6458C30.3677 16.7357 30.3948 16.8773 30.5625 16.8637C30.7302 16.8501 30.7951 16.8501 30.9655 16.8501C31.1332 16.8501 31.1981 16.8501 31.3685 16.8637C31.5361 16.8746 31.5632 16.7357 31.4577 16.6458C31.3549 16.5532 31.3198 16.5423 31.3171 16.1828V12.977C31.3198 12.6174 31.3549 12.6065 31.4577 12.5139C31.5632 12.4213 31.5361 12.2824 31.3685 12.296C31.2008 12.3069 31.1359 12.3069 30.9655 12.3069C30.7951 12.3069 30.7302 12.3069 30.5625 12.296C30.3948 12.2824 30.3677 12.424 30.4705 12.5139C30.576 12.6065 30.6112 12.6174 30.6139 12.977V16.1855C30.6112 16.5396 30.576 16.5532 30.4705 16.6458Z"/><path fill="black" d="M35.6439 17.0404H35.0787V13.2163H35.6439C36.0794 13.2163 36.431 12.8595 36.431 12.421C36.431 11.9825 36.0767 11.6257 35.6439 11.6257H35.0787V9.81171H30.8703C30.0427 9.81171 29.3287 10.3074 29.0041 11.021C28.6796 10.3074 27.9656 9.81171 27.138 9.81171H21.8992V11.6257H21.3339C20.8985 11.6257 20.5469 11.9825 20.5469 12.421C20.5469 12.8595 20.9012 13.2163 21.3339 13.2163H21.8992V17.0432H21.3339C20.8985 17.0432 20.5469 17.4 20.5469 17.8385C20.5469 18.2743 20.9012 18.6311 21.3339 18.6311H21.8992V20.5949H27.998C28.2063 20.9381 28.5768 21.1696 29.0014 21.1696C29.4288 21.1696 29.7993 20.9381 30.0048 20.5949H35.0732V18.6311H35.6385C36.0739 18.6311 36.4255 18.2743 36.4255 17.8385C36.431 17.3972 36.0767 17.0404 35.6439 17.0404ZM33.0259 10.2529L33.6993 10.9502V19.184L33.0259 18.5793V10.2529ZM29.1881 11.8763C29.1881 10.942 29.9426 10.1821 30.8703 10.1821H32.658V18.4758L30.8703 18.4731C30.2023 18.4731 29.7317 18.5902 29.3774 18.8571C29.3152 18.8354 29.2557 18.819 29.1908 18.8108V11.8763H29.1881ZM24.3171 10.1821H27.1353C28.0629 10.1821 28.8175 10.942 28.8175 11.8763V18.8081C28.7526 18.819 28.6904 18.8354 28.6309 18.8544C28.2766 18.5875 27.806 18.4704 27.1353 18.4704L24.3171 18.4785V10.1821ZM23.9493 18.5793L23.2758 19.184V10.9502L23.9493 10.2529V18.5793ZM22.267 20.2217V18.2579H21.3339C21.1013 18.2579 20.9147 18.07 20.9147 17.8358C20.9147 17.6015 21.104 17.4136 21.3339 17.4136H22.267V12.8432H21.3339C21.1013 12.8432 20.9147 12.6525 20.9147 12.421C20.9147 12.1895 21.104 11.9988 21.3339 11.9988H22.267V10.1821H23.5003L22.9053 10.7977V19.7832H27.8412C27.8303 19.8458 27.8222 19.9112 27.8222 19.9766C27.8222 20.061 27.8303 20.1427 27.8466 20.219H22.267V20.2217ZM27.971 19.4128H23.576L24.2062 18.849L27.138 18.8435C27.6545 18.8435 28.0061 18.9225 28.2631 19.0587C28.1441 19.1595 28.0467 19.2766 27.971 19.4128ZM29.0041 20.7665C28.5714 20.7665 28.2198 20.4124 28.2198 19.9766C28.2198 19.5408 28.5714 19.1867 29.0041 19.1867C29.4369 19.1867 29.7885 19.5408 29.7885 19.9766C29.7885 20.4124 29.4342 20.7665 29.0041 20.7665ZM29.7425 19.0614C30.0021 18.9225 30.3537 18.8462 30.8676 18.8462L32.7689 18.8517L33.3991 19.4155H30.0319C29.9616 19.2766 29.8615 19.1595 29.7425 19.0614ZM35.6439 18.2579H34.7108V20.2217H30.159C30.1752 20.1427 30.1833 20.061 30.1833 19.9793C30.1833 19.9139 30.1752 19.8486 30.1644 19.7859H34.0698V10.8004L33.4748 10.1849H34.7081V11.9988H35.6412C35.8711 11.9988 36.0604 12.1895 36.0604 12.421C36.0604 12.6525 35.8711 12.8432 35.6412 12.8432H34.7081V17.4109H35.6412C35.8711 17.4109 36.0604 17.6015 36.0604 17.833C36.0631 18.0673 35.8738 18.2579 35.6439 18.2579Z"/><path fill="black" d="M26.1028 16.1474L26.1082 14.5785L26.3571 14.6058C26.4355 14.7392 27.2956 16.5777 27.3686 16.7057C27.4443 16.8337 27.4849 16.8201 27.4849 16.8201H28.1151C28.3558 16.8201 28.3585 16.6485 28.3152 16.6186C28.2476 16.5668 28.1881 16.5096 28.0907 16.3762C27.9934 16.2427 27.2712 14.8046 27.2198 14.7202C27.1685 14.6357 27.1549 14.6058 27.1549 14.5486C27.1549 14.4914 27.1901 14.4151 27.2983 14.3688C27.685 14.2054 28.0096 13.8731 28.0096 13.3392C28.0096 12.6365 27.6174 12.2334 26.4274 12.2334C26.1299 12.2334 25.6025 12.2198 25.4186 12.2198C25.2347 12.2198 25.0751 12.3451 25.1995 12.4513C25.3266 12.5548 25.3374 12.6338 25.3374 12.7863V16.1474C25.3374 16.5069 25.2347 16.5178 25.1427 16.6104C25.0535 16.703 25.0751 16.8419 25.2238 16.831C25.3699 16.8201 25.543 16.8201 25.6944 16.8201C25.8621 16.8201 26.0352 16.8201 26.2083 16.831C26.3787 16.8419 26.4085 16.6785 26.3057 16.5886C26.2029 16.496 26.1028 16.5069 26.1028 16.1474ZM26.1164 12.8599C26.1164 12.4785 26.3733 12.4676 26.6032 12.5003C26.8304 12.5357 27.2117 12.6529 27.2117 13.4019C27.2117 14.1536 26.6843 14.2925 26.4436 14.2925C26.2029 14.2925 26.1218 14.1863 26.1218 14.0719L26.1164 13.391V12.8599Z"/><path fill="black" d="M18.8437 17.0395H18.2785V13.2154H18.8437C19.2792 13.2154 19.6308 12.8586 19.6308 12.42C19.6308 11.9815 19.2765 11.6247 18.8437 11.6247H18.2785V9.81073H13.4751C12.6475 9.81073 11.9335 10.3064 11.609 11.0201C11.2844 10.3064 10.5704 9.81073 9.74279 9.81073H4.94214V11.6247H4.37688C3.94144 11.6247 3.58984 11.9815 3.58984 12.42C3.58984 12.8586 3.94415 13.2154 4.37688 13.2154H4.94214V17.0422H4.37688C3.94144 17.0422 3.58984 17.399 3.58984 17.8375C3.58984 18.2733 3.94415 18.6301 4.37688 18.6301H4.94214V20.5939H10.6056C10.8138 20.9371 11.1843 21.1686 11.609 21.1686C12.0336 21.1686 12.4068 20.9371 12.6124 20.5939H18.2758V18.6301H18.841C19.2765 18.6301 19.6281 18.2733 19.6281 17.8375C19.6335 17.3963 19.2792 17.0395 18.8437 17.0395ZM16.2284 10.252L16.9019 10.9492V19.183L16.2284 18.5783V10.252ZM11.7929 11.8753C11.7929 10.9411 12.5475 10.1812 13.4751 10.1812H15.8606V18.4748L13.4751 18.4694C12.8071 18.4694 12.3365 18.5865 11.9822 18.8534C11.92 18.8317 11.8605 18.8153 11.7956 18.8071V11.8753H11.7929ZM7.36005 10.1812H9.74279C10.6705 10.1812 11.4251 10.9411 11.4251 11.8753V18.8071C11.3601 18.818 11.2979 18.8344 11.2384 18.8534C10.8841 18.5865 10.4135 18.4694 9.7455 18.4694L7.36275 18.4748V10.1812H7.36005ZM6.99222 18.5783L6.31878 19.183V10.9492L6.98952 10.252L6.99222 18.5783ZM5.30996 20.2207V18.257H4.37418C4.14429 18.257 3.95496 18.069 3.95496 17.8348C3.95496 17.6005 4.14429 17.4126 4.37418 17.4126H5.30996V12.8422H4.37418C4.14429 12.8422 3.95496 12.6516 3.95496 12.42C3.95496 12.1885 4.14429 11.9979 4.37418 11.9979H5.30996V10.1812H6.54326L5.95095 10.7994V19.785H10.4514C10.4406 19.8476 10.4325 19.913 10.4325 19.9783C10.4325 20.0628 10.4406 20.1445 10.4568 20.2207H5.30996ZM10.5785 19.4118H6.61628L7.24375 18.848L9.74009 18.8425C10.2567 18.8425 10.6083 18.9215 10.8652 19.0577C10.7516 19.1585 10.6515 19.2756 10.5785 19.4118ZM11.609 20.7655C11.1762 20.7655 10.8246 20.4114 10.8246 19.9756C10.8246 19.5398 11.1762 19.1857 11.609 19.1857C12.0417 19.1857 12.3933 19.5398 12.3933 19.9756C12.3933 20.4114 12.0417 20.7655 11.609 20.7655ZM12.35 19.0604C12.6097 18.9215 12.9613 18.8453 13.4751 18.8453L15.9742 18.8507L16.6043 19.4145H12.6421C12.5664 19.2756 12.469 19.1585 12.35 19.0604ZM18.8437 18.257H17.908V20.2207H12.7638C12.7801 20.1418 12.7882 20.06 12.7882 19.9783C12.7882 19.913 12.7801 19.8476 12.7692 19.785H17.2724V10.7994L16.6774 10.1839H17.9107V11.9979H18.8465C19.079 11.9979 19.2657 12.1885 19.2657 12.42C19.2657 12.6516 19.0763 12.8422 18.8465 12.8422H17.9107V17.4099H18.8465C19.079 17.4099 19.2657 17.6005 19.2657 17.8321C19.263 18.0663 19.0763 18.257 18.8437 18.257Z"/><path fill="black" d="M12.6627 16.573C12.5599 16.6656 12.5843 16.8045 12.7546 16.7909C12.9223 16.78 12.9872 16.7773 13.1549 16.7773L14.9048 16.7746C15.0427 16.7827 15.3051 16.908 15.3051 16.6329V15.7804C15.3051 15.3174 15.0752 15.2357 14.9372 15.7913C14.8453 16.159 14.7317 16.494 14.1691 16.494H13.804C13.6553 16.494 13.6012 16.4368 13.5877 16.3088C13.5525 15.9847 13.5525 15.4018 13.5877 14.7645C13.5958 14.5793 13.6796 14.5629 13.8608 14.5629C14.0447 14.5629 14.0934 14.5793 14.1475 14.7291C14.2124 14.9034 14.5505 15.2166 14.5505 14.7291V14.0835C14.5505 13.5987 14.253 13.9446 14.1718 14.0835C14.0907 14.2225 14.0474 14.2225 13.8608 14.2225C13.6796 14.2225 13.6201 14.187 13.6093 14.0018C13.5931 13.6995 13.5741 13.2174 13.6093 12.6509C13.6174 12.5256 13.6553 12.4684 13.804 12.4684H14.1691C14.7317 12.4684 14.7317 12.8497 14.821 13.2201C14.9129 13.5878 15.1888 13.4952 15.1888 13.231V12.3785C15.1888 12.1007 14.9264 12.2287 14.7885 12.2369H13.1549C12.9872 12.2369 12.9223 12.2369 12.7546 12.2233C12.5843 12.2124 12.5599 12.3513 12.6627 12.4439C12.7682 12.5365 12.8033 12.5474 12.806 12.9042V16.1127C12.806 16.4695 12.7682 16.4831 12.6627 16.573Z"/><path fill="black" d="M10.9311 12.471C11.0257 12.3783 11.023 12.2095 10.8905 12.2231C10.7553 12.2367 10.7039 12.2367 10.574 12.2367C10.4415 12.2367 10.3901 12.2367 10.2603 12.2231C10.1305 12.2122 10.0872 12.3484 10.1548 12.4437C10.2225 12.5363 10.3387 12.5472 10.2847 12.904L9.60851 15.1238C9.53008 15.4044 9.35428 15.497 9.27855 15.1211L8.81336 12.9013C8.74034 12.5445 8.7755 12.5309 8.86204 12.441C8.94859 12.3484 8.89179 12.2095 8.72411 12.2204C8.55642 12.234 8.48881 12.234 8.31842 12.234C8.14533 12.234 8.08041 12.234 7.90462 12.2204C7.73152 12.2095 7.73423 12.3457 7.85864 12.441C7.98305 12.5336 8.02362 12.5445 8.10205 12.9013L8.90532 16.4094C8.98104 16.7009 9.03243 16.9051 9.22175 16.9051C9.41107 16.9051 9.51926 16.7118 9.59499 16.4203L10.666 12.9013C10.8012 12.5554 10.8337 12.5636 10.9311 12.471Z"/></g><g fill="none" class="hbs-logo__separator-wordmark"><rect fill="#FFFFFF" fill-opacity="0.95" class="hbs-logo__separator" height="80" width="1.5" x="71"/><path fill="#FFFFFF" fill-opacity="0.95" class="hbs-logo__wordmark" d="M86.58 25.988H90.468V18.908H97.356V25.988H101.244V8.82799H97.356V15.836H90.468V8.82799H86.58V25.988Z"/><path fill="#FFFFFF" fill-opacity="0.95" class="hbs-logo__wordmark" d="M107.623 26.252C109.591 26.252 110.695 25.484 111.415 24.476V25.988H114.799V17.804C114.799 14.396 112.615 13.148 109.543 13.148C106.471 13.148 104.119 14.468 103.903 17.444H107.191C107.335 16.364 107.959 15.668 109.327 15.668C110.911 15.668 111.367 16.484 111.367 17.972V18.476H109.951C106.111 18.476 103.423 19.58 103.423 22.508C103.423 25.148 105.343 26.252 107.623 26.252ZM108.655 23.828C107.383 23.828 106.831 23.228 106.831 22.316C106.831 20.972 108.007 20.54 110.023 20.54H111.367V21.596C111.367 22.988 110.191 23.828 108.655 23.828Z"/><path fill="#FFFFFF" fill-opacity="0.95" class="hbs-logo__wordmark" d="M117.546 25.988H121.026V19.7C121.026 17.3 122.514 16.46 125.082 16.484V13.244C123.042 13.268 121.818 14.156 121.026 15.836V13.436H117.546V25.988Z"/><path fill="#FFFFFF" fill-opacity="0.95" class="hbs-logo__wordmark" d="M130.627 25.988H134.539L139.099 13.436H135.739L132.763 22.412L129.763 13.436H126.043L130.627 25.988Z"/><path fill="#FFFFFF" fill-opacity="0.95" class="hbs-logo__wordmark" d="M143.77 26.252C145.738 26.252 146.842 25.484 147.562 24.476V25.988H150.946V17.804C150.946 14.396 148.762 13.148 145.69 13.148C142.618 13.148 140.266 14.468 140.05 17.444H143.338C143.482 16.364 144.106 15.668 145.474 15.668C147.058 15.668 147.514 16.484 147.514 17.972V18.476H146.098C142.258 18.476 139.57 19.58 139.57 22.508C139.57 25.148 141.49 26.252 143.77 26.252ZM144.802 23.828C143.53 23.828 142.978 23.228 142.978 22.316C142.978 20.972 144.154 20.54 146.17 20.54H147.514V21.596C147.514 22.988 146.338 23.828 144.802 23.828Z"/><path fill="#FFFFFF" fill-opacity="0.95" class="hbs-logo__wordmark" d="M153.693 25.988H157.173V19.7C157.173 17.3 158.661 16.46 161.229 16.484V13.244C159.189 13.268 157.965 14.156 157.173 15.836V13.436H153.693V25.988Z"/><path fill="#FFFFFF" fill-opacity="0.95" class="hbs-logo__wordmark" d="M167.743 26.252C169.591 26.252 171.127 25.172 171.775 23.9V25.988H175.231V7.74799H171.775V15.308C171.079 14.036 169.831 13.148 167.815 13.148C164.671 13.148 162.295 15.572 162.295 19.7V19.892C162.295 24.068 164.695 26.252 167.743 26.252ZM168.775 23.54C167.047 23.54 165.847 22.316 165.847 19.82V19.628C165.847 17.132 166.927 15.812 168.871 15.812C170.767 15.812 171.871 17.084 171.871 19.58V19.772C171.871 22.316 170.599 23.54 168.775 23.54Z"/><path fill="#FFFFFF" fill-opacity="0.95" class="hbs-logo__wordmark" d="M86.58 48.988H93.636C97.596 48.988 99.66 47.332 99.66 44.188V44.092C99.66 41.788 98.46 40.516 96.228 40.06C98.148 39.508 99.012 38.188 99.012 36.388V36.292C99.012 33.364 97.068 31.828 93.324 31.828H86.58V48.988ZM90.372 46.3V41.38H92.844C94.956 41.38 95.82 42.196 95.82 43.78V43.876C95.82 45.436 94.956 46.3 93.036 46.3H90.372ZM90.372 38.884V34.492H92.676C94.5 34.492 95.316 35.14 95.316 36.58V36.676C95.316 38.212 94.572 38.884 92.7 38.884H90.372Z"/><path fill="#FFFFFF" fill-opacity="0.95" class="hbs-logo__wordmark" d="M106.024 49.252C108.088 49.252 109.36 48.292 110.008 47.02V48.988H113.464V36.436H110.008V43.804C110.008 45.652 108.856 46.564 107.392 46.564C105.904 46.564 105.208 45.748 105.208 44.044V36.436H101.752V44.524C101.752 47.812 103.576 49.252 106.024 49.252Z"/><path fill="#FFFFFF" fill-opacity="0.95" class="hbs-logo__wordmark" d="M120.864 49.252C124.176 49.252 126.144 47.836 126.144 45.124C126.144 42.436 124.416 41.644 121.272 41.188C119.448 40.924 118.848 40.612 118.848 39.82C118.848 39.052 119.496 38.524 120.624 38.524C121.824 38.524 122.4 39.004 122.592 40.036H125.784C125.472 37.156 123.384 36.148 120.6 36.148C118.032 36.148 115.632 37.444 115.632 40.06C115.632 42.508 116.928 43.468 120.264 43.972C122.064 44.236 122.808 44.596 122.808 45.46C122.808 46.324 122.184 46.828 120.84 46.828C119.328 46.828 118.776 46.18 118.632 45.052H115.392C115.512 47.764 117.48 49.252 120.864 49.252Z"/><path fill="#FFFFFF" fill-opacity="0.95" class="hbs-logo__wordmark" d="M128.206 48.988H131.662V36.436H128.206V48.988ZM129.91 34.732C131.038 34.732 131.902 33.916 131.902 32.836C131.902 31.756 131.038 30.94 129.91 30.94C128.806 30.94 127.942 31.756 127.942 32.836C127.942 33.916 128.806 34.732 129.91 34.732Z"/><path fill="#FFFFFF" fill-opacity="0.95" class="hbs-logo__wordmark" d="M134.62 48.988H138.1V41.74C138.1 39.892 139.228 38.98 140.716 38.98C142.252 38.98 142.924 39.796 142.924 41.5V48.988H146.404V40.996C146.404 37.636 144.653 36.148 142.181 36.148C140.093 36.148 138.724 37.18 138.1 38.428V36.436H134.62V48.988Z"/><path fill="#FFFFFF" fill-opacity="0.95" class="hbs-logo__wordmark" d="M154.93 49.252C158.362 49.252 160.522 47.74 160.93 45.028H157.642C157.426 46.084 156.634 46.78 155.026 46.78C153.13 46.78 152.002 45.58 151.906 43.492H160.954V42.532C160.954 38.044 158.074 36.148 154.834 36.148C151.186 36.148 148.378 38.716 148.378 42.676V42.868C148.378 46.876 151.138 49.252 154.93 49.252ZM151.954 41.356C152.218 39.58 153.274 38.548 154.834 38.548C156.49 38.548 157.45 39.46 157.57 41.356H151.954Z"/><path fill="#FFFFFF" fill-opacity="0.95" class="hbs-logo__wordmark" d="M167.669 49.252C170.981 49.252 172.949 47.836 172.949 45.124C172.949 42.436 171.221 41.644 168.077 41.188C166.253 40.924 165.653 40.612 165.653 39.82C165.653 39.052 166.301 38.524 167.429 38.524C168.629 38.524 169.205 39.004 169.397 40.036H172.589C172.277 37.156 170.189 36.148 167.405 36.148C164.837 36.148 162.437 37.444 162.437 40.06C162.437 42.508 163.733 43.468 167.069 43.972C168.869 44.236 169.613 44.596 169.613 45.46C169.613 46.324 168.989 46.828 167.645 46.828C166.133 46.828 165.581 46.18 165.437 45.052H162.197C162.317 47.764 164.285 49.252 167.669 49.252Z"/><path fill="#FFFFFF" fill-opacity="0.95" class="hbs-logo__wordmark" d="M179.476 49.252C182.788 49.252 184.756 47.836 184.756 45.124C184.756 42.436 183.028 41.644 179.884 41.188C178.06 40.924 177.46 40.612 177.46 39.82C177.46 39.052 178.108 38.524 179.236 38.524C180.436 38.524 181.012 39.004 181.204 40.036H184.396C184.084 37.156 181.996 36.148 179.212 36.148C176.644 36.148 174.244 37.444 174.244 40.06C174.244 42.508 175.54 43.468 178.876 43.972C180.676 44.236 181.42 44.596 181.42 45.46C181.42 46.324 180.796 46.828 179.452 46.828C177.94 46.828 177.388 46.18 177.244 45.052H174.004C174.124 47.764 176.092 49.252 179.476 49.252Z"/><path fill="#FFFFFF" fill-opacity="0.95" class="hbs-logo__wordmark" d="M92.58 72.252C96.636 72.252 99.132 69.828 99.132 66.78C99.132 63.228 96.996 62.1 92.844 61.572C90.204 61.188 89.652 60.612 89.652 59.388C89.652 58.236 90.516 57.444 92.22 57.444C93.924 57.444 94.836 58.164 95.076 59.724H98.652C98.34 56.316 96.084 54.588 92.22 54.588C88.428 54.588 85.98 56.772 85.98 59.7C85.98 63.012 87.78 64.332 92.172 64.908C94.692 65.292 95.412 65.772 95.412 67.14C95.412 68.484 94.284 69.42 92.58 69.42C90.036 69.42 89.388 68.148 89.22 66.612H85.5C85.716 70.044 87.876 72.252 92.58 72.252Z"/><path fill="#FFFFFF" fill-opacity="0.95" class="hbs-logo__wordmark" d="M107.068 72.252C110.716 72.252 112.876 70.188 113.068 67.212H109.924C109.756 68.82 108.628 69.636 107.236 69.636C105.292 69.636 104.164 68.34 104.164 65.82V65.628C104.164 63.228 105.364 61.884 107.164 61.884C108.58 61.884 109.468 62.556 109.708 64.02H112.996C112.684 60.42 109.996 59.148 107.092 59.148C103.516 59.148 100.612 61.62 100.612 65.676V65.868C100.612 69.972 103.396 72.252 107.068 72.252Z"/><path fill="#FFFFFF" fill-opacity="0.95" class="hbs-logo__wordmark" d="M115.015 71.988H118.495V64.74C118.495 62.892 119.623 61.98 121.111 61.98C122.647 61.98 123.319 62.796 123.319 64.5V71.988H126.799V63.996C126.799 60.636 125.047 59.148 122.575 59.148C120.487 59.148 119.119 60.18 118.495 61.428V53.748H115.015V71.988Z"/><path fill="#FFFFFF" fill-opacity="0.95" class="hbs-logo__wordmark" d="M135.396 69.612C133.428 69.612 132.324 68.172 132.324 65.772V65.58C132.324 63.18 133.476 61.788 135.396 61.788C137.34 61.788 138.468 63.228 138.468 65.628V65.796C138.468 68.172 137.34 69.612 135.396 69.612ZM135.372 72.252C139.14 72.252 141.996 69.732 141.996 65.772V65.58C141.996 61.668 139.164 59.148 135.396 59.148C131.628 59.148 128.772 61.716 128.772 65.652V65.844C128.772 69.756 131.628 72.252 135.372 72.252Z"/><path fill="#FFFFFF" fill-opacity="0.95" class="hbs-logo__wordmark" d="M149.945 69.612C147.977 69.612 146.873 68.172 146.873 65.772V65.58C146.873 63.18 148.025 61.788 149.945 61.788C151.889 61.788 153.017 63.228 153.017 65.628V65.796C153.017 68.172 151.889 69.612 149.945 69.612ZM149.921 72.252C153.689 72.252 156.545 69.732 156.545 65.772V65.58C156.545 61.668 153.713 59.148 149.945 59.148C146.177 59.148 143.321 61.716 143.321 65.652V65.844C143.321 69.756 146.177 72.252 149.921 72.252Z"/><path fill="#FFFFFF" fill-opacity="0.95" class="hbs-logo__wordmark" d="M158.734 71.988H162.19V53.748H158.734V71.988Z"/></g></svg>