<?xml version="1.0" encoding="UTF-8" standalone="no"?>
<svg
   xmlns:dc="http://purl.org/dc/elements/1.1/"
   xmlns:cc="http://creativecommons.org/ns#"
   xmlns:rdf="http://www.w3.org/1999/02/22-rdf-syntax-ns#"
   xmlns:svg="http://www.w3.org/2000/svg"
   xmlns="http://www.w3.org/2000/svg"
   viewBox="0 0 301.82 202.18138"
   height="202.18138"
   width="301.82001"
   xml:space="preserve"
   version="1.1"
   id="svg3390"><metadata
     id="metadata3396"><rdf:RDF><cc:Work
         rdf:about=""><dc:format>image/svg+xml</dc:format><dc:type
           rdf:resource="http://purl.org/dc/dcmitype/StillImage" /><dc:title></dc:title></cc:Work></rdf:RDF></metadata><defs
     id="defs3394" /><g
     transform="matrix(1.25,0,0,-1.25,0,277.12625)"
     id="g3398"><g
       transform="scale(0.1,0.1)"
       id="g3400"><path
         id="path3426"
         style="fill:#00d6dd;fill-opacity:1;fill-rule:nonzero;stroke:none"
         d="m 2306.06,1815.23 c -59.77,0 -108.37,-54.6 -108.37,-121.73 l 0,-70.64 c 0,-27.73 -17.35,-51.15 -37.9,-51.15 -20.55,0 -37.89,23.42 -37.89,51.15 l 0,271.64 c 0,67.11 -48.63,121.7 -108.42,121.7 -59.78,0 -108.46,-54.59 -108.46,-121.7 l 0,-396.68 c 0,-27.7 -17.36,-51.1 -37.93,-51.1 -20.51,0 -37.83,23.4 -37.83,51.1 l 0,543.38 c 0,67.09 -48.63,121.68 -108.42,121.68 -59.8,0 -108.46,-54.59 -108.46,-121.68 l 0,-760.1 c 0,-27.72 -17.36,-51.14 -37.86,-51.14 -20.54,0 -37.89,23.42 -37.89,51.14 l 0,813.26 c 0,3.82 -0.77,7.45 -1.89,10.9 -4.96,62.01 -51.45,110.76 -107.98,110.76 -59.79,0 -108.43,-54.57 -108.43,-121.66 l 0,-1126.098 c 0,-27.723 -17.36,-51.141 -37.9,-51.141 -20.52,0 -37.87,23.418 -37.87,51.141 l 0,880.048 c 0,67.1 -48.64,121.68 -108.45,121.68 -59.79,0 -108.42,-54.58 -108.42,-121.68 l 0,-1126.08 c 0,-27.718 -17.36,-51.128 -37.901,-51.128 -20.539,0 -37.891,23.41 -37.891,51.128 0,3.258 -0.578,6.329 -1.406,9.34 l 0,803.9 c 0,67.09 -48.652,121.68 -108.453,121.68 -59.781,0 -108.398,-54.59 -108.398,-121.68 l 0,-760.091 c 0,-27.719 -17.364,-51.129 -37.891,-51.129 -20.562,0 -37.922,23.41 -37.922,51.129 l 0,546.431 c 0,0.85 -0.187,1.64 -0.258,2.48 -2.609,64.5 -50.027,116.11 -108.136,116.11 -59.793,0 -108.454,-54.57 -108.454,-121.65 l 0,-396.68 c 0,-27.73 -17.359,-51.16 -37.91,-51.16 -20.527,0 -37.851,23.43 -37.851,51.16 l 0,271.65 c 0,67.1 -48.649,121.7 -108.449,121.7 -59.79,0 -108.454,-54.6 -108.454,-121.7 l 0,-70.65 c 0,-27.73 -17.336,-51.17 -37.843,-51.17 -20.5628,0 -37.93,23.44 -37.93,51.17 l 0,561.64 c 0,27.72 17.3672,51.14 37.93,51.14 20.507,0 37.843,-23.42 37.843,-51.14 l 0,-72.11 c 0,-67.11 48.664,-121.72 108.454,-121.72 59.8,0 108.449,54.61 108.449,121.72 l 0,372.58 c 0,27.75 17.324,51.21 37.851,51.21 20.551,0 37.91,-23.46 37.91,-51.21 l 0,-91.53 c 0,-67.1 48.661,-121.7 108.454,-121.7 59.761,0 108.394,54.6 108.394,121.7 l 0,201.64 c 0,27.74 17.36,51.17 37.922,51.17 20.527,0 37.891,-23.43 37.891,-51.17 0,-19.47 15.793,-35.27 35.257,-35.27 19.493,0 35.282,15.8 35.282,35.27 0,67.12 -48.649,121.72 -108.43,121.72 -59.809,0 -108.461,-54.6 -108.461,-121.72 l 0,-201.64 c 0,-27.72 -17.34,-51.14 -37.855,-51.14 -20.543,0 -37.903,23.42 -37.903,51.14 l 0,91.53 c 0,67.13 -48.652,121.75 -108.461,121.75 -59.781,0 -108.41,-54.62 -108.41,-121.75 l 0,-372.58 c 0,-27.74 -17.351,-51.17 -37.89,-51.17 -20.551,0 -37.899,23.43 -37.899,51.17 l 0,72.11 c 0,67.09 -48.644,121.68 -108.398,121.68 C 48.6563,1806.39 0,1751.8 0,1684.71 l 0,-561.64 c 0,-67.12 48.6563,-121.73 108.473,-121.73 59.754,0 108.398,54.61 108.398,121.73 l 0,70.65 c 0,27.73 17.348,51.14 37.899,51.14 20.539,0 37.89,-23.41 37.89,-51.14 l 0,-271.65 c 0,-67.109 48.629,-121.699 108.41,-121.699 59.809,0 108.461,54.59 108.461,121.699 l 0,396.68 c 0,27.7 17.36,51.1 37.903,51.1 20.515,0 37.855,-23.4 37.855,-51.1 l 0,-543.371 c 0,-67.098 48.652,-121.68 108.461,-121.68 59.781,0 108.43,54.582 108.43,121.68 l 0,760.091 c 0,27.72 17.332,51.14 37.859,51.14 20.551,0 37.899,-23.42 37.899,-51.14 l 0,-813.24 c 0,-3.851 0.761,-7.46 1.91,-10.921 4.953,-62 51.441,-110.758 107.941,-110.758 59.801,0 108.441,54.578 108.441,121.679 l 0,1126.08 c 0,27.72 17.36,51.13 37.88,51.13 20.54,0 37.91,-23.41 37.91,-51.13 l 0,-880.048 c 0,-67.082 48.63,-121.672 108.41,-121.672 59.79,0 108.44,54.59 108.44,121.672 l 0,1126.098 c 0,27.7 17.37,51.12 37.89,51.12 20.56,0 37.91,-23.42 37.91,-51.12 0,-3.27 0.59,-6.36 1.41,-9.35 l 0,-803.91 c 0,-67.1 48.64,-121.69 108.44,-121.69 59.78,0 108.41,54.59 108.41,121.69 l 0,760.1 c 0,27.71 17.36,51.12 37.91,51.12 20.53,0 37.88,-23.41 37.88,-51.12 l 0,-546.43 c 0,-0.86 0.17,-1.66 0.23,-2.49 2.63,-64.5 50.06,-116.11 108.14,-116.11 59.83,0 108.49,54.57 108.49,121.65 l 0,396.68 c 0,27.73 17.37,51.15 37.9,51.15 20.54,0 37.87,-23.42 37.87,-51.15 l 0,-271.64 c 0,-67.11 48.65,-121.7 108.44,-121.7 59.8,0 108.45,54.59 108.45,121.7 l 0,70.64 c 0,27.74 17.32,51.18 37.82,51.18 20.57,0 37.94,-23.44 37.94,-51.18 l 0,-561.64 c 0,-27.72 -17.37,-51.13 -37.94,-51.13 -20.5,0 -37.82,23.41 -37.82,51.13 l 0,72.11 c 0,67.11 -48.65,121.71 -108.45,121.71 -59.79,0 -108.44,-54.6 -108.44,-121.71 l 0,-372.56 c 0,-27.769 -17.33,-51.23 -37.87,-51.23 -20.53,0 -37.9,23.461 -37.9,51.23 l 0,91.512 c 0,67.098 -48.66,121.688 -108.49,121.688 -59.75,0 -108.37,-54.59 -108.37,-121.688 l 0,-201.652 c 0,-27.731 -17.35,-51.161 -37.88,-51.161 -20.55,0 -37.91,23.43 -37.91,51.161 0,19.48 -15.8,35.281 -35.27,35.281 -19.48,0 -35.28,-15.801 -35.28,-35.281 0,-67.11 48.66,-121.711 108.46,-121.711 59.79,0 108.42,54.601 108.42,121.711 l 0,201.652 c 0,27.726 17.32,51.148 37.83,51.148 20.57,0 37.93,-23.422 37.93,-51.148 l 0,-91.512 c 0,-67.148 48.68,-121.769 108.46,-121.769 59.79,0 108.42,54.621 108.42,121.769 l 0,372.56 c 0,27.74 17.34,51.17 37.89,51.17 20.55,0 37.9,-23.43 37.9,-51.17 l 0,-72.11 c 0,-67.09 48.6,-121.68 108.37,-121.68 59.8,0 108.5,54.59 108.5,121.68 l 0,561.64 c 0,67.13 -48.7,121.73 -108.5,121.73" /></g></g></svg>