<svg xmlns:xlink="http://www.w3.org/1999/xlink" width="158" height="30" viewBox="0 0 158 30" fill="none" xmlns="http://www.w3.org/2000/svg">
<path d="M154.415 25.3074C152.814 25.3074 151.652 24.1143 151.652 22.5443C151.652 20.9744 152.814 19.7184 154.415 19.7184C156.048 19.7184 157.241 20.9744 157.241 22.5443C157.241 24.1143 156.048 25.3074 154.415 25.3074Z" fill="#FD571C"/>
<path d="M144.159 25.433C139.732 25.433 136.278 22.0419 136.278 16.9867C136.278 11.6176 139.983 7.9753 145.039 7.9753C148.492 7.9753 150.659 9.67084 150.659 11.806C150.659 13.3131 149.529 14.3179 147.425 14.4434L146.514 9.45105C146.357 9.41965 146.169 9.41965 146.012 9.41965C143.343 9.41965 141.396 11.5862 141.396 15.2598C141.396 19.4358 143.469 21.7908 146.483 21.7908C147.864 21.7908 149.246 21.2884 150.314 20.2836L150.816 20.943C149.78 23.6119 147.331 25.433 144.159 25.433Z" fill="#0D0A07"/>
<path d="M116.123 24.0201C117.881 23.5491 118.07 23.2979 118.07 21.9163V11.8687L115.966 10.5186V9.85923L122.717 7.9753H123.093L122.968 11.7118C124.506 9.38825 126.704 7.9753 129.185 7.9753C132.136 7.9753 133.832 9.85923 133.832 12.9677V21.9163C133.832 23.2979 134.02 23.5491 135.778 24.0201V25.119H127.081V24.0201C128.62 23.5491 128.808 23.2979 128.808 21.9163V13.5015C128.808 11.9315 127.897 11.0524 126.359 11.0524C125.323 11.0524 124.255 11.4606 123.093 12.3711V21.9163C123.093 23.2979 123.282 23.5491 125.04 24.0201V25.119H116.123V24.0201Z" fill="#0D0A07"/>
<path d="M104.833 24.0201C107.031 23.5491 107.283 23.2979 107.283 21.9163V6.34257C107.283 4.96102 107.031 4.70983 104.833 4.23885V3.13989H115.195V4.23885C112.966 4.70983 112.746 4.96102 112.746 6.34257V21.9163C112.746 23.2979 112.966 23.5491 115.195 24.0201V25.119H104.833V24.0201Z" fill="#0D0A07"/>
<path d="M92.8496 28.7613C94.7649 27.8507 95.7697 26.532 95.7697 25.3074C95.7697 24.1143 94.9847 23.2037 93.0694 22.7327C93.0694 20.943 94.3882 19.7498 95.9267 19.7498C97.7164 19.7498 98.8468 21.1628 98.8468 23.0153C98.8468 25.4644 97.057 28.1019 93.2892 29.5776L92.8496 28.7613Z" fill="#0D0A07"/>
<path d="M80.2647 25.433C76.7167 25.433 74.2676 22.7641 74.2676 17.9287C74.2676 11.9943 77.8784 7.9753 83.75 7.9753C84.3466 7.9753 84.9745 8.0067 85.6653 8.1323V3.89346L83.593 2.54332V1.88394L90.3437 1.90735e-05H90.7205V21.5396L92.8242 22.8897V23.5491L86.0735 25.433H85.6653L85.7909 22.3559C84.3152 24.3968 82.4627 25.433 80.2647 25.433ZM79.3856 16.5158C79.3856 20.5034 80.8299 22.6699 83.279 22.6699C84.0954 22.6699 84.849 22.4187 85.6653 21.8221V9.51384C85.1943 9.38824 84.7234 9.32545 84.3152 9.32545C81.3009 9.32545 79.3856 12.0257 79.3856 16.5158Z" fill="#0D0A07"/>
<path d="M63.7443 25.433C61.8918 25.433 59.4113 24.9934 56.7424 23.6747V3.89346L54.6387 2.54332V1.88394L61.4208 1.90735e-05H61.7976V8.28929L61.672 11.0524H61.7034C63.1477 9.01146 65.0317 7.9753 67.2296 7.9753C70.7776 7.9753 73.2267 10.6442 73.2267 15.4796C73.2267 21.414 69.6159 25.433 63.7443 25.433ZM61.7976 23.7689C62.3 24.0201 62.8023 24.0829 63.1791 24.0829C66.162 24.0829 68.1087 21.3826 68.1087 16.8925C68.1087 12.9049 66.6644 10.7384 64.2153 10.7384C63.3989 10.7384 62.6454 10.9896 61.7976 11.6176V23.7689Z" fill="#0D0A07"/>
<path d="M46.1297 24.0201C47.888 23.5491 48.0764 23.2979 48.0764 21.9163V11.8687L45.9727 10.5186V9.85923L52.7234 7.9753H53.1002V21.9163C53.1002 23.2979 53.2886 23.5491 55.0469 24.0201V25.119H46.1297V24.0201ZM47.6682 2.9829C47.6682 1.31877 48.8927 0.0942154 50.5883 0.0942154C52.221 0.0942154 53.4456 1.31877 53.4456 2.9829C53.4456 4.55284 52.221 5.74599 50.5883 5.74599C48.8927 5.74599 47.6682 4.55284 47.6682 2.9829Z" fill="#0D0A07"/>
<path d="M32.4451 24.0201C34.2034 23.5491 34.3918 23.2979 34.3918 21.9163V11.8687L32.2881 10.5186V9.85923L39.0388 7.9753H39.4156L39.29 13.5015H39.3842C40.6402 9.35685 42.0845 7.9753 43.9684 7.9753C44.5022 7.9753 45.036 8.1323 45.5384 8.41489V12.7479C43.8114 12.5595 41.2995 12.5281 39.4156 14.3492V21.9163C39.4156 23.2979 39.6668 23.5491 42.1159 24.0201V25.119H32.4451V24.0201Z" fill="#0D0A07"/>
<path d="M25.1409 25.433C20.7136 25.433 17.2598 22.0419 17.2598 16.9867C17.2598 11.6176 20.9648 7.9753 26.02 7.9753C29.4739 7.9753 31.6404 9.67084 31.6404 11.806C31.6404 13.3131 30.51 14.3179 28.4063 14.4434L27.4958 9.45105C27.3388 9.41965 27.1504 9.41965 26.9934 9.41965C24.3245 9.41965 22.3778 11.5862 22.3778 15.2598C22.3778 19.4358 24.4501 21.7908 27.4644 21.7908C28.8459 21.7908 30.2275 21.2884 31.295 20.2836L31.7974 20.943C30.7612 23.6119 28.3121 25.433 25.1409 25.433Z" fill="#0D0A07"/>
<path d="M7.28451 25.433C4.9296 25.433 2.19791 24.7422 0.313987 23.5805L0 18.0857H1.09896C2.76309 22.0105 5.27499 23.9887 8.00668 23.9887C10.1732 23.9887 11.5233 22.8269 11.5233 20.9744C11.5233 15.3854 0.313987 17.0181 0.313987 9.60804C0.313987 5.4634 3.67365 2.8259 8.47766 2.8259C10.6756 2.8259 12.9677 3.39108 14.726 4.36444L15.04 9.04286H13.9096C12.5595 5.80879 10.6128 4.17605 8.16368 4.17605C6.15415 4.17605 4.83541 5.3378 4.83541 7.06474C4.83541 12.3397 16.1076 10.3616 16.1076 18.2113C16.1076 22.6699 12.3711 25.433 7.28451 25.433Z" fill="#0D0A07"/>
</svg>